<svg width="20" height="23" viewBox="0 0 20 23" fill="none" xmlns="http://www.w3.org/2000/svg">
<path fill-rule="evenodd" clip-rule="evenodd" d="M19.7144 5.02164L17.666 4.51366L17.2958 3.12747L15.2007 2.63466L14.7698 1.12462L9.82526 0L4.97294 1.12462L4.54205 2.63466L2.44696 3.12747C2.30796 3.60512 2.18539 4.0676 2.06155 4.52883L0.0132178 5.02164C-0.140944 9.38114 1.06077 13.2162 3.23294 16.6356C4.82005 19.0845 7.20703 21.6724 9.82526 22.9512C11.5969 22.1046 13.1675 20.6868 14.5853 19.0997C18.0199 15.1268 19.8989 10.4742 19.7144 5.02164ZM13.6768 18.2075C12.5522 19.4712 11.2885 20.7184 9.87201 21.4424C8.51614 20.7651 7.33086 19.5937 6.25173 18.4085C3.44775 15.1281 1.5839 11.4611 1.27684 7.16348C1.24651 6.80967 1.23009 6.46975 1.24652 6.10077L2.98653 5.7002L3.38709 4.26726L5.52767 3.75928L5.54284 3.71253L5.92824 2.23409L9.81009 1.32554L13.8145 2.23409L14.1999 3.74412L16.3721 4.26726L16.7423 5.7002L18.4988 6.10077C18.4507 10.7825 16.5869 14.7098 13.6768 18.2075Z" fill="#929292"/>
</svg>
